# xmcd
#
# Track frame offsets: 
#        150
#        5638
#        23705
#        42421
#        70551
#        87176
#        103853
#        128253
#        151467
#        169289
#        195219
#        223555
#        248036
#        267565
#
# Disc length: 4013 seconds
#
# Revision: 2
# Processed by: cddbd v1.5.2PL0 Copyright (c) Steve Scherf et al.
# Submitted via: ExactAudioCopy v0.99pb1
#
DISCID=b30fab0e
DTITLE=The Accident Experiment - United We Fear
DYEAR=2006
DGENRE=Metal
TTITLE0={Prelude}
TTITLE1=Sick Love Letter
TTITLE2=Inside
TTITLE3=Mind Death Machine
TTITLE4=Slow Down
TTITLE5=Suicide Of Love
TTITLE6=Holy Magic Man
TTITLE7=Demon Slide
TTITLE8=Lost Kisses
TTITLE9=So Far Away
TTITLE10=Aex-1
TTITLE11=Tonight
TTITLE12=Bleed This
TTITLE13=Lukas' Star/ {Aftermath}
EXTD=
EXTT0=
EXTT1=
EXTT2=
EXTT3=
EXTT4=
EXTT5=
EXTT6=
EXTT7=
EXTT8=
EXTT9=
EXTT10=
EXTT11=
EXTT12=
EXTT13=
PLAYORDER=
